<?xml version="1.0" encoding="iso-8859-1"?>
<!-- Generator: Adobe Illustrator 21.1.0, SVG Export Plug-In . SVG Version: 6.00 Build 0)  -->
<svg version="1.1" id="Layer_1" xmlns="http://www.w3.org/2000/svg" xmlns:xlink="http://www.w3.org/1999/xlink" x="0px" y="0px"
	 viewBox="0 0 64 46" style="enable-background:new 0 0 64 46;" xml:space="preserve">
<g>
	<path id="background_3_" style="fill:#FFFFFF;" d="M2,0h60.002C63.105,0,64,0.895,64,1.998V44c0,1.105-0.895,2-2,2H2
		c-1.105,0-2-0.895-2-2V2C0,0.895,0.895,0,2,0L2,0z"/>
	<path id="background_1_" style="fill:#F4F4F4;" d="M62.002,1C62.552,1,63,1.448,63,1.998V44c0,0.551-0.449,1-1,1H2
		c-0.551,0-1-0.449-1-1V2c0-0.551,0.449-1,1-1H62.002 M62.002,0H2C0.895,0,0,0.895,0,2v42c0,1.105,0.895,2,2,2h60
		c1.105,0,2-0.895,2-2V1.998C64,0.895,63.105,0,62.002,0L62.002,0z"/>
</g>
<path id="blue-stripes" style="fill:#72ABDE;" d="M0,32h64v12.002C64,45.105,63.105,46,62.002,46H1.998C0.895,46,0,45.105,0,44.002
	V32L0,32z M62.002,0C63.105,0,64,0.895,64,1.998V14H0V1.998C0,0.895,0.895,0,1.998,0H62.002z"/>
<path id="sun-fill" style="fill:#F3B206;" d="M32,28c2.761,0,5-2.239,5-5c0-2.761-2.239-5-5-5s-5,2.239-5,5
	C27,25.761,29.239,28,32,28L32,28z"/>
<path id="sun-borders" style="fill:#843200;" d="M32,29c3.314,0,6-2.686,6-6c0-3.314-2.686-6-6-6c-3.314,0-6,2.686-6,6
	C26,26.314,28.686,29,32,29L32,29z M32,27c-2.209,0-4-1.791-4-4c0-2.209,1.791-4,4-4c2.209,0,4,1.791,4,4C36,25.209,34.209,27,32,27
	L32,27z"/>
</svg>
