<?xml version="1.0" encoding="UTF-8"?>
<svg width="64px" height="46px" viewBox="0 0 64 46" version="1.1" xmlns="http://www.w3.org/2000/svg" xmlns:xlink="http://www.w3.org/1999/xlink">
    <!-- Generator: Sketch 55.2 (78181) - https://sketchapp.com -->
    <title>US-SVG</title>
    <desc>Created with Sketch.</desc>
    <defs>
        <rect id="path-1" x="0" y="0" width="64" height="46" rx="2"></rect>
    </defs>
    <g id="Desktop-HiDPI" stroke="none" stroke-width="1" fill="none" fill-rule="evenodd">
        <g id="Home-–-Desktop-HiDPI" transform="translate(-835.000000, -2536.000000)">
            <g id="Contact" transform="translate(0.000000, 2400.000000)">
                <g id="Title" transform="translate(128.000000, 120.000000)">
                    <g id="US" transform="translate(707.000000, 16.000000)">
                        <mask id="mask-2" fill="white">
                            <use xlink:href="#path-1"></use>
                        </mask>
                        <use id="Mask" fill="#B22234" fill-rule="nonzero" xlink:href="#path-1"></use>
                        <path d="M0,7.5 L0,4 L64,4 L64,7.5 L0,7.5 Z M64,11 L64,14.5 L0,14.5 L0,11 L64,11 Z M0,21.5 L0,18 L64,18 L64,21.5 L0,21.5 Z M64,25 L64,28.5 L0,28.5 L0,25 L64,25 Z M0,35.5 L0,32 L64,32 L64,35.5 L0,35.5 Z M64,39 L64,42.5 L0,42.5 L0,39 L64,39 Z" id="White-stripes" fill="#FFFFFF" fill-rule="nonzero" mask="url(#mask-2)"></path>
                        <g id="Blue" mask="url(#mask-2)">
                            <rect id="Rectangle" fill="#3C3B6E" fill-rule="nonzero" x="0" y="0" width="36" height="25"></rect>
                            <path d="M3,4 C2.44771525,4 2,3.55228475 2,3 C2,2.44771525 2.44771525,2 3,2 C3.55228475,2 4,2.44771525 4,3 C4,3.55228475 3.55228475,4 3,4 Z M9,4 C8.44771525,4 8,3.55228475 8,3 C8,2.44771525 8.44771525,2 9,2 C9.55228475,2 10,2.44771525 10,3 C10,3.55228475 9.55228475,4 9,4 Z M15,4 C14.4477153,4 14,3.55228475 14,3 C14,2.44771525 14.4477153,2 15,2 C15.5522847,2 16,2.44771525 16,3 C16,3.55228475 15.5522847,4 15,4 Z M21,4 C20.4477153,4 20,3.55228475 20,3 C20,2.44771525 20.4477153,2 21,2 C21.5522847,2 22,2.44771525 22,3 C22,3.55228475 21.5522847,4 21,4 Z M27,4 C26.4477153,4 26,3.55228475 26,3 C26,2.44771525 26.4477153,2 27,2 C27.5522847,2 28,2.44771525 28,3 C28,3.55228475 27.5522847,4 27,4 Z M33,4 C32.4477153,4 32,3.55228475 32,3 C32,2.44771525 32.4477153,2 33,2 C33.5522847,2 34,2.44771525 34,3 C34,3.55228475 33.5522847,4 33,4 Z M6,6.375 C5.44771525,6.375 5,5.92728475 5,5.375 C5,4.82271525 5.44771525,4.375 6,4.375 C6.55228475,4.375 7,4.82271525 7,5.375 C7,5.92728475 6.55228475,6.375 6,6.375 Z M12,6.375 C11.4477153,6.375 11,5.92728475 11,5.375 C11,4.82271525 11.4477153,4.375 12,4.375 C12.5522847,4.375 13,4.82271525 13,5.375 C13,5.92728475 12.5522847,6.375 12,6.375 Z M18,6.375 C17.4477153,6.375 17,5.92728475 17,5.375 C17,4.82271525 17.4477153,4.375 18,4.375 C18.5522847,4.375 19,4.82271525 19,5.375 C19,5.92728475 18.5522847,6.375 18,6.375 Z M24,6.375 C23.4477153,6.375 23,5.92728475 23,5.375 C23,4.82271525 23.4477153,4.375 24,4.375 C24.5522847,4.375 25,4.82271525 25,5.375 C25,5.92728475 24.5522847,6.375 24,6.375 Z M30,6.375 C29.4477153,6.375 29,5.92728475 29,5.375 C29,4.82271525 29.4477153,4.375 30,4.375 C30.5522847,4.375 31,4.82271525 31,5.375 C31,5.92728475 30.5522847,6.375 30,6.375 Z M6,11.125 C5.44771525,11.125 5,10.6772847 5,10.125 C5,9.57271525 5.44771525,9.125 6,9.125 C6.55228475,9.125 7,9.57271525 7,10.125 C7,10.6772847 6.55228475,11.125 6,11.125 Z M12,11.125 C11.4477153,11.125 11,10.6772847 11,10.125 C11,9.57271525 11.4477153,9.125 12,9.125 C12.5522847,9.125 13,9.57271525 13,10.125 C13,10.6772847 12.5522847,11.125 12,11.125 Z M18,11.125 C17.4477153,11.125 17,10.6772847 17,10.125 C17,9.57271525 17.4477153,9.125 18,9.125 C18.5522847,9.125 19,9.57271525 19,10.125 C19,10.6772847 18.5522847,11.125 18,11.125 Z M24,11.125 C23.4477153,11.125 23,10.6772847 23,10.125 C23,9.57271525 23.4477153,9.125 24,9.125 C24.5522847,9.125 25,9.57271525 25,10.125 C25,10.6772847 24.5522847,11.125 24,11.125 Z M30,11.125 C29.4477153,11.125 29,10.6772847 29,10.125 C29,9.57271525 29.4477153,9.125 30,9.125 C30.5522847,9.125 31,9.57271525 31,10.125 C31,10.6772847 30.5522847,11.125 30,11.125 Z M6,15.875 C5.44771525,15.875 5,15.4272847 5,14.875 C5,14.3227153 5.44771525,13.875 6,13.875 C6.55228475,13.875 7,14.3227153 7,14.875 C7,15.4272847 6.55228475,15.875 6,15.875 Z M12,15.875 C11.4477153,15.875 11,15.4272847 11,14.875 C11,14.3227153 11.4477153,13.875 12,13.875 C12.5522847,13.875 13,14.3227153 13,14.875 C13,15.4272847 12.5522847,15.875 12,15.875 Z M18,15.875 C17.4477153,15.875 17,15.4272847 17,14.875 C17,14.3227153 17.4477153,13.875 18,13.875 C18.5522847,13.875 19,14.3227153 19,14.875 C19,15.4272847 18.5522847,15.875 18,15.875 Z M24,15.875 C23.4477153,15.875 23,15.4272847 23,14.875 C23,14.3227153 23.4477153,13.875 24,13.875 C24.5522847,13.875 25,14.3227153 25,14.875 C25,15.4272847 24.5522847,15.875 24,15.875 Z M30,15.875 C29.4477153,15.875 29,15.4272847 29,14.875 C29,14.3227153 29.4477153,13.875 30,13.875 C30.5522847,13.875 31,14.3227153 31,14.875 C31,15.4272847 30.5522847,15.875 30,15.875 Z M6,20.625 C5.44771525,20.625 5,20.1772847 5,19.625 C5,19.0727153 5.44771525,18.625 6,18.625 C6.55228475,18.625 7,19.0727153 7,19.625 C7,20.1772847 6.55228475,20.625 6,20.625 Z M12,20.625 C11.4477153,20.625 11,20.1772847 11,19.625 C11,19.0727153 11.4477153,18.625 12,18.625 C12.5522847,18.625 13,19.0727153 13,19.625 C13,20.1772847 12.5522847,20.625 12,20.625 Z M18,20.625 C17.4477153,20.625 17,20.1772847 17,19.625 C17,19.0727153 17.4477153,18.625 18,18.625 C18.5522847,18.625 19,19.0727153 19,19.625 C19,20.1772847 18.5522847,20.625 18,20.625 Z M24,20.625 C23.4477153,20.625 23,20.1772847 23,19.625 C23,19.0727153 23.4477153,18.625 24,18.625 C24.5522847,18.625 25,19.0727153 25,19.625 C25,20.1772847 24.5522847,20.625 24,20.625 Z M30,20.625 C29.4477153,20.625 29,20.1772847 29,19.625 C29,19.0727153 29.4477153,18.625 30,18.625 C30.5522847,18.625 31,19.0727153 31,19.625 C31,20.1772847 30.5522847,20.625 30,20.625 Z M3,8.75 C2.44771525,8.75 2,8.30228475 2,7.75 C2,7.19771525 2.44771525,6.75 3,6.75 C3.55228475,6.75 4,7.19771525 4,7.75 C4,8.30228475 3.55228475,8.75 3,8.75 Z M9,8.75 C8.44771525,8.75 8,8.30228475 8,7.75 C8,7.19771525 8.44771525,6.75 9,6.75 C9.55228475,6.75 10,7.19771525 10,7.75 C10,8.30228475 9.55228475,8.75 9,8.75 Z M15,8.75 C14.4477153,8.75 14,8.30228475 14,7.75 C14,7.19771525 14.4477153,6.75 15,6.75 C15.5522847,6.75 16,7.19771525 16,7.75 C16,8.30228475 15.5522847,8.75 15,8.75 Z M21,8.75 C20.4477153,8.75 20,8.30228475 20,7.75 C20,7.19771525 20.4477153,6.75 21,6.75 C21.5522847,6.75 22,7.19771525 22,7.75 C22,8.30228475 21.5522847,8.75 21,8.75 Z M27,8.75 C26.4477153,8.75 26,8.30228475 26,7.75 C26,7.19771525 26.4477153,6.75 27,6.75 C27.5522847,6.75 28,7.19771525 28,7.75 C28,8.30228475 27.5522847,8.75 27,8.75 Z M33,8.75 C32.4477153,8.75 32,8.30228475 32,7.75 C32,7.19771525 32.4477153,6.75 33,6.75 C33.5522847,6.75 34,7.19771525 34,7.75 C34,8.30228475 33.5522847,8.75 33,8.75 Z M3,13.5 C2.44771525,13.5 2,13.0522847 2,12.5 C2,11.9477153 2.44771525,11.5 3,11.5 C3.55228475,11.5 4,11.9477153 4,12.5 C4,13.0522847 3.55228475,13.5 3,13.5 Z M9,13.5 C8.44771525,13.5 8,13.0522847 8,12.5 C8,11.9477153 8.44771525,11.5 9,11.5 C9.55228475,11.5 10,11.9477153 10,12.5 C10,13.0522847 9.55228475,13.5 9,13.5 Z M15,13.5 C14.4477153,13.5 14,13.0522847 14,12.5 C14,11.9477153 14.4477153,11.5 15,11.5 C15.5522847,11.5 16,11.9477153 16,12.5 C16,13.0522847 15.5522847,13.5 15,13.5 Z M21,13.5 C20.4477153,13.5 20,13.0522847 20,12.5 C20,11.9477153 20.4477153,11.5 21,11.5 C21.5522847,11.5 22,11.9477153 22,12.5 C22,13.0522847 21.5522847,13.5 21,13.5 Z M27,13.5 C26.4477153,13.5 26,13.0522847 26,12.5 C26,11.9477153 26.4477153,11.5 27,11.5 C27.5522847,11.5 28,11.9477153 28,12.5 C28,13.0522847 27.5522847,13.5 27,13.5 Z M33,13.5 C32.4477153,13.5 32,13.0522847 32,12.5 C32,11.9477153 32.4477153,11.5 33,11.5 C33.5522847,11.5 34,11.9477153 34,12.5 C34,13.0522847 33.5522847,13.5 33,13.5 Z M3,18.25 C2.44771525,18.25 2,17.8022847 2,17.25 C2,16.6977153 2.44771525,16.25 3,16.25 C3.55228475,16.25 4,16.6977153 4,17.25 C4,17.8022847 3.55228475,18.25 3,18.25 Z M9,18.25 C8.44771525,18.25 8,17.8022847 8,17.25 C8,16.6977153 8.44771525,16.25 9,16.25 C9.55228475,16.25 10,16.6977153 10,17.25 C10,17.8022847 9.55228475,18.25 9,18.25 Z M15,18.25 C14.4477153,18.25 14,17.8022847 14,17.25 C14,16.6977153 14.4477153,16.25 15,16.25 C15.5522847,16.25 16,16.6977153 16,17.25 C16,17.8022847 15.5522847,18.25 15,18.25 Z M21,18.25 C20.4477153,18.25 20,17.8022847 20,17.25 C20,16.6977153 20.4477153,16.25 21,16.25 C21.5522847,16.25 22,16.6977153 22,17.25 C22,17.8022847 21.5522847,18.25 21,18.25 Z M27,18.25 C26.4477153,18.25 26,17.8022847 26,17.25 C26,16.6977153 26.4477153,16.25 27,16.25 C27.5522847,16.25 28,16.6977153 28,17.25 C28,17.8022847 27.5522847,18.25 27,18.25 Z M33,18.25 C32.4477153,18.25 32,17.8022847 32,17.25 C32,16.6977153 32.4477153,16.25 33,16.25 C33.5522847,16.25 34,16.6977153 34,17.25 C34,17.8022847 33.5522847,18.25 33,18.25 Z M3,23 C2.44771525,23 2,22.5522847 2,22 C2,21.4477153 2.44771525,21 3,21 C3.55228475,21 4,21.4477153 4,22 C4,22.5522847 3.55228475,23 3,23 Z M9,23 C8.44771525,23 8,22.5522847 8,22 C8,21.4477153 8.44771525,21 9,21 C9.55228475,21 10,21.4477153 10,22 C10,22.5522847 9.55228475,23 9,23 Z M15,23 C14.4477153,23 14,22.5522847 14,22 C14,21.4477153 14.4477153,21 15,21 C15.5522847,21 16,21.4477153 16,22 C16,22.5522847 15.5522847,23 15,23 Z M21,23 C20.4477153,23 20,22.5522847 20,22 C20,21.4477153 20.4477153,21 21,21 C21.5522847,21 22,21.4477153 22,22 C22,22.5522847 21.5522847,23 21,23 Z M27,23 C26.4477153,23 26,22.5522847 26,22 C26,21.4477153 26.4477153,21 27,21 C27.5522847,21 28,21.4477153 28,22 C28,22.5522847 27.5522847,23 27,23 Z M33,23 C32.4477153,23 32,22.5522847 32,22 C32,21.4477153 32.4477153,21 33,21 C33.5522847,21 34,21.4477153 34,22 C34,22.5522847 33.5522847,23 33,23 Z" id="Stars" fill="#FFFFFF"></path>
                        </g>
                    </g>
                </g>
            </g>
        </g>
    </g>
</svg>